<svg width="32" height="13" viewBox="0 0 32 13" fill="none" xmlns="http://www.w3.org/2000/svg">
<path d="M15.5679 12.28H8.34788C8.09788 12.28 7.85788 12.28 7.71788 12.02C7.57788 11.76 7.71788 11.56 7.82788 11.34C8.01186 11.0367 8.11186 10.6899 8.11761 10.3352C8.12337 9.98051 8.03469 9.63066 7.86065 9.32154C7.68661 9.01242 7.43349 8.75516 7.12724 8.57612C6.82098 8.39709 6.47262 8.30274 6.11788 8.30274C5.76313 8.30274 5.41477 8.39709 5.10852 8.57612C4.80227 8.75516 4.54914 9.01242 4.37511 9.32154C4.20107 9.63066 4.11238 9.98051 4.11814 10.3352C4.1239 10.6899 4.2239 11.0367 4.40788 11.34C4.53788 11.55 4.64788 11.75 4.51788 11.99C4.45336 12.0948 4.35866 12.1776 4.24623 12.2275C4.13379 12.2775 4.00888 12.2923 3.88788 12.27H2.06788C1.64938 12.2814 1.24067 12.1423 0.915916 11.8781C0.591162 11.6139 0.371885 11.2421 0.297879 10.83C0.0396464 9.91035 -0.0517971 8.95188 0.0278785 7.99999C0.10471 7.19808 0.403727 6.4335 0.891307 5.79223C1.37889 5.15095 2.0357 4.65842 2.78788 4.36999C3.10924 4.2384 3.40149 4.04471 3.64788 3.79999C4.39788 3.06999 5.10788 2.29999 5.91788 1.63999C7.24016 0.573501 8.88911 -0.00557622 10.5879 -5.96267e-06C12.1679 -5.96267e-06 13.7379 -5.96267e-06 15.3179 -5.96267e-06C16.4205 -0.00222174 17.5004 0.313748 18.4279 0.909994C19.5679 1.62999 20.7379 2.31999 21.8479 3.08999C22.9236 3.82161 24.1639 4.27513 25.4579 4.40999C26.251 4.50829 27.0362 4.662 27.8079 4.86999C28.5569 5.09006 29.252 5.46322 29.8493 5.96585C30.4466 6.46848 30.9331 7.08963 31.2779 7.78999C31.5996 8.38303 31.7318 9.06044 31.6567 9.73095C31.5817 10.4015 31.3028 11.0328 30.8579 11.54C30.6386 11.7683 30.3765 11.9511 30.0865 12.0781C29.7965 12.2051 29.4844 12.2737 29.1679 12.28H27.1679C27.0559 12.3015 26.94 12.2864 26.8374 12.2368C26.7347 12.1872 26.6508 12.1059 26.598 12.0049C26.5453 11.9038 26.5265 11.7885 26.5445 11.6759C26.5624 11.5633 26.6162 11.4596 26.6979 11.38C26.9098 11.0727 27.0315 10.7122 27.0492 10.3393C27.0668 9.96638 26.9798 9.59598 26.7979 9.26999C26.631 8.9398 26.3758 8.66236 26.0607 8.46854C25.7456 8.27471 25.3828 8.17209 25.0129 8.17209C24.6429 8.17209 24.2802 8.27471 23.9651 8.46854C23.6499 8.66236 23.3948 8.9398 23.2279 9.26999C23.041 9.58106 22.9423 9.93711 22.9423 10.3C22.9423 10.6629 23.041 11.0189 23.2279 11.33C23.2803 11.3995 23.3271 11.4731 23.3679 11.55C23.4079 11.6219 23.4296 11.7025 23.431 11.7848C23.4323 11.8671 23.4134 11.9484 23.3758 12.0216C23.3382 12.0948 23.2832 12.1576 23.2155 12.2044C23.1478 12.2513 23.0696 12.2806 22.9879 12.29C22.8814 12.2998 22.7743 12.2998 22.6679 12.29L15.5679 12.28ZM28.1679 6.08999C27.9294 5.99036 27.6857 5.90357 27.4379 5.82999C26.6279 5.66999 25.8179 5.49999 24.9979 5.37999C23.7459 5.23179 22.5466 4.78978 21.4979 4.08999C20.3279 3.29999 19.1179 2.56999 17.9179 1.80999C17.1125 1.27427 16.1651 0.992134 15.1979 0.999994C13.6779 0.999994 12.1979 0.999994 10.6279 0.999994C8.88537 1.02121 7.2188 1.71651 5.97788 2.93999C5.38788 3.47999 4.82788 3.99999 4.28788 4.60999C4.01571 4.911 3.67165 5.13808 3.28788 5.26999C3.0444 5.3647 2.80725 5.47493 2.57788 5.59999C2.74663 5.65331 2.88892 5.76856 2.97613 5.92255C3.06333 6.07655 3.08897 6.25786 3.04788 6.42999C3.04788 6.66999 3.04788 6.91999 3.04788 7.15999C3.04923 7.36345 3.00998 7.56513 2.93244 7.75324C2.85489 7.94134 2.74061 8.11209 2.59628 8.25549C2.45195 8.3989 2.28046 8.51207 2.09186 8.5884C1.90325 8.66472 1.70132 8.70266 1.49788 8.69999H0.977879C1.12788 9.43999 1.24788 10.14 1.42788 10.82C1.4703 10.9219 1.53722 11.0117 1.6227 11.0815C1.70819 11.1512 1.80958 11.1988 1.91788 11.22C2.35736 11.2502 2.7984 11.2502 3.23788 11.22C2.93788 9.56999 3.31788 8.42999 4.42788 7.68999C4.91059 7.33808 5.48963 7.14268 6.08688 7.13016C6.68413 7.11764 7.27084 7.28861 7.76788 7.61999C8.37349 7.97165 8.837 8.52409 9.07808 9.18159C9.31917 9.83909 9.32263 10.5602 9.08788 11.22H22.1079C21.8865 10.592 21.8804 9.90825 22.0904 9.2764C22.3004 8.64454 22.7146 8.1005 23.2679 7.72999C23.7208 7.37283 24.2723 7.16313 24.848 7.12916C25.4238 7.09518 25.9961 7.23857 26.4879 7.53999C27.1443 7.87746 27.6567 8.44085 27.9305 9.12631C28.2043 9.81177 28.2212 10.5731 27.9779 11.27C28.7379 11.19 29.5479 11.48 30.2079 10.75H29.2079V9.74999H30.6979V9.24999H30.2579C29.6135 9.27522 28.9831 9.05824 28.4907 8.64179C27.9984 8.22534 27.6799 7.63961 27.5979 6.99999C27.5279 6.45999 27.6379 6.26999 28.1679 6.08999ZM28.7779 7.28999C28.8875 7.58091 29.0956 7.82423 29.3659 7.97768C29.6363 8.13113 29.9519 8.18503 30.2579 8.12999C30.0779 7.32999 29.3979 7.38999 28.7779 7.28999ZM1.11788 7.64999C1.83788 7.77999 2.11788 7.45999 1.97788 6.64999C1.62788 6.52999 1.44788 6.69999 1.33788 7.00999L1.11788 7.64999Z" fill="black"/>
<path d="M11.9779 2.05C13.3579 2.05 14.7379 2.05 16.1279 2.05C16.3453 2.05551 16.5581 2.11386 16.7479 2.22C18.0179 3 19.2779 3.8 20.5379 4.58C20.6668 4.64273 20.7733 4.74349 20.843 4.86867C20.9128 4.99385 20.9424 5.13743 20.9279 5.28C20.9279 5.71 20.9279 6.14 20.9279 6.56C20.9367 6.6375 20.9285 6.71597 20.904 6.79002C20.8796 6.86407 20.8393 6.93194 20.7861 6.98896C20.7329 7.04597 20.668 7.09079 20.5958 7.12031C20.5236 7.14984 20.4459 7.16338 20.3679 7.16C19.9743 7.17022 19.5997 7.33184 19.3222 7.61123C19.0446 7.89062 18.8855 8.26627 18.8779 8.66C18.8829 8.73481 18.8713 8.80979 18.844 8.8796C18.8166 8.94942 18.7742 9.01234 18.7198 9.06391C18.6654 9.11547 18.6002 9.1544 18.5291 9.17792C18.4579 9.20144 18.3824 9.20898 18.3079 9.2H10.3079C10.2357 9.20985 10.1621 9.20438 10.0921 9.18396C10.0221 9.16354 9.95717 9.12862 9.90153 9.08147C9.84588 9.03431 9.80078 8.97598 9.76915 8.91026C9.73753 8.84454 9.72008 8.7729 9.71794 8.7C9.57794 7.88 9.43794 7.07 9.30794 6.24C9.29844 6.12925 9.26377 6.02213 9.20658 5.92681C9.14939 5.8315 9.07119 5.7505 8.97794 5.69C8.18269 5.23699 7.58665 4.50175 7.30794 3.63C7.21869 3.30303 7.16175 2.96809 7.13794 2.63C7.13794 2.22 7.31794 2.02 7.73794 2.02L11.9779 2.05ZM19.9079 6.18C19.8979 6.08359 19.8979 5.9864 19.9079 5.89C19.9397 5.73667 19.9159 5.57705 19.8407 5.43966C19.7656 5.30227 19.6441 5.19606 19.4979 5.14C18.4979 4.52 17.4379 3.86 16.4079 3.22C16.3279 3.17 16.2479 3.09 16.1579 3.09C15.5379 3.09 14.9179 3.09 14.3079 3.09V8.19H17.9079C18.0129 7.69655 18.2586 7.24408 18.6153 6.88736C18.972 6.53063 19.4245 6.28493 19.9179 6.18H19.9079ZM8.22794 3.09C8.22126 3.1565 8.22126 3.2235 8.22794 3.29C8.46095 4.00498 8.96803 4.59836 9.63794 4.94C9.82258 5.05153 9.97732 5.20631 10.0888 5.39097C10.2003 5.57564 10.2652 5.78466 10.2779 6C10.3679 6.72 10.5079 7.44 10.6279 8.15H13.2479V3.09H8.22794Z" fill="black"/>
</svg>
