<svg width="22" height="22" viewBox="0 0 22 22" fill="none" xmlns="http://www.w3.org/2000/svg">
<path d="M8.27721 18.1832C8.55651 18.2421 8.73521 18.5162 8.67629 18.7955C8.62496 19.0388 8.41026 19.2058 8.1711 19.2058C8.13578 19.2058 8.09995 19.2022 8.064 19.1946C5.04983 18.5592 2.69164 16.201 2.05633 13.1868C1.99747 12.9075 2.17617 12.6333 2.45546 12.5745C2.73453 12.5157 3.00884 12.6943 3.06775 12.9736C3.6186 15.5873 5.66349 17.6322 8.27721 18.1832ZM10.1957 11.5728C10.1957 11.2873 9.96437 11.056 9.67893 11.056H9.67715C9.39171 11.056 9.16127 11.2873 9.16127 11.5728C9.16127 11.8582 9.39349 12.0896 9.67893 12.0896C9.96437 12.0896 10.1957 11.8582 10.1957 11.5728ZM22.001 1.26777V7.56118C22.001 7.84662 21.7696 8.07798 21.4842 8.07798C21.1987 8.07798 20.9674 7.84662 20.9674 7.56118V6.93247H12.954L11.2019 9.96732C11.5072 10.2573 11.7303 10.6334 11.8317 11.056H14.3182V8.59466C14.3182 8.30921 14.5495 8.07786 14.835 8.07786C15.1204 8.07786 15.3518 8.30921 15.3518 8.59466V11.5575C15.3519 11.5626 15.352 11.5677 15.352 11.5729C15.352 13.2701 14.603 14.7956 13.4181 15.8363C13.4061 15.849 13.3932 15.8613 13.3796 15.873C12.9119 16.276 12.3851 16.5966 11.8218 16.8264C11.1671 17.0945 10.4517 17.2437 9.7023 17.2468C9.70115 17.2469 9.70012 17.2468 9.69909 17.2468C9.69771 17.2468 9.69656 17.2468 9.69524 17.2468C9.6938 17.2469 9.69248 17.2469 9.69116 17.2468C9.68973 17.2468 9.68823 17.2468 9.68691 17.2468C9.68548 17.2468 9.68393 17.2468 9.68255 17.2468C9.68094 17.2468 9.67801 17.2464 9.67807 17.2468C8.65769 17.2468 7.69903 16.9759 6.87073 16.5024C6.86085 16.4975 6.85097 16.4922 6.84127 16.4866C6.83099 16.4807 6.821 16.4744 6.81129 16.468C5.13303 15.4813 4.00412 13.6564 4.00412 11.5729C4.00412 9.48946 5.13309 7.6646 6.81135 6.67792C6.82106 6.67143 6.83105 6.66512 6.84133 6.65926C6.85103 6.65363 6.86085 6.64841 6.87078 6.64347C7.69921 6.16985 8.65757 5.89905 9.6783 5.89905C9.71958 5.89905 9.75978 5.90388 9.79825 5.91307C9.83678 5.90388 9.87692 5.89905 9.91821 5.89905H12.6467C12.653 5.89888 12.6593 5.89888 12.6656 5.89905H20.9675V2.93018H9.91809C9.87692 2.93018 9.83684 2.92536 9.79848 2.91629C9.76012 2.92536 9.72004 2.93018 9.67887 2.93018C4.91259 2.93018 1.03554 6.80724 1.03554 11.5728C1.03554 16.3383 4.91259 20.2154 9.67818 20.2154C13.005 20.2154 16.0737 18.2705 17.4962 15.2606C17.5201 15.2101 17.551 15.1654 17.5873 15.1268C18.0741 14.0519 18.3472 12.8604 18.3521 11.6068C18.352 11.6025 18.3519 11.5983 18.3519 11.5939V8.5946C18.3519 8.30915 18.5833 8.0778 18.8687 8.0778C19.1542 8.0778 19.3855 8.30915 19.3855 8.5946V11.5574C19.3857 11.5625 19.3858 11.5677 19.3858 11.5728C19.3858 16.9083 15.045 21.249 9.70954 21.249C9.69909 21.249 9.68869 21.249 9.67818 21.249C4.34268 21.2489 0.00195312 16.9082 0.00195312 11.5728C0.00195312 6.23733 4.34268 1.8966 9.67818 1.8966C9.71947 1.8966 9.75966 1.90142 9.79814 1.91061C9.83667 1.90142 9.87681 1.8966 9.91809 1.8966H20.9674V1.26777C20.9674 0.982328 21.1987 0.750977 21.4842 0.750977C21.7696 0.750977 22.001 0.982328 22.001 1.26777ZM5.06625 11.056H7.52447C7.62594 10.6332 7.84896 10.2572 8.15444 9.9672L6.92579 7.83899C5.9119 8.58834 5.21268 9.73993 5.06625 11.056ZM6.92568 15.3066L8.15439 13.1783C7.84896 12.8883 7.62588 12.5123 7.52441 12.0896H5.06619C5.21268 13.4058 5.91179 14.5573 6.92568 15.3066ZM11.5363 15.8247L10.3075 13.6962C10.1079 13.7555 9.89673 13.7873 9.67824 13.7873C9.45969 13.7873 9.24856 13.7555 9.04896 13.6962L7.82008 15.8248C8.3893 16.0745 9.01789 16.2131 9.67824 16.2131C9.67939 16.2131 9.6806 16.2131 9.68186 16.2131H9.68197C9.68347 16.2131 9.68467 16.2131 9.68605 16.2131C9.68726 16.2131 9.68881 16.2131 9.68984 16.2131C9.69116 16.2131 9.69237 16.2131 9.69374 16.2131C9.69484 16.213 9.69621 16.2131 9.69736 16.2131C9.69782 16.2131 9.69794 16.2131 9.69845 16.2131C10.287 16.2105 10.865 16.0961 11.403 15.8807C11.4479 15.8627 11.4921 15.844 11.5363 15.8247ZM9.67818 12.7536C10.3293 12.7536 10.859 12.2239 10.859 11.5728C10.859 10.9217 10.3293 10.3919 9.67818 10.3919C9.02696 10.3919 8.49719 10.9217 8.49719 11.5728C8.49719 12.2239 9.02696 12.7536 9.67818 12.7536ZM11.2019 13.1783L12.4306 15.3065C13.4443 14.5572 14.1435 13.4056 14.2898 12.0896H11.8317C11.7303 12.5122 11.5072 12.8883 11.2019 13.1783ZM11.7605 6.93241H9.91809C9.87692 6.93241 9.83684 6.92759 9.79848 6.91852C9.76012 6.92759 9.72004 6.93241 9.67887 6.93241C9.01824 6.93241 8.38941 7.07109 7.82002 7.32087L9.04884 9.44932C9.24844 9.39006 9.45958 9.35825 9.67813 9.35825C9.89662 9.35825 10.1078 9.39006 10.3074 9.44932L11.7605 6.93241Z" fill="black"/>
</svg>
