<svg width="25" height="25" viewBox="0 0 25 25" fill="none" xmlns="http://www.w3.org/2000/svg">
<g clip-path="url(#clip0_3152_756)">
<path d="M13.1491 0.224289C13.6011 0.288872 14.0577 0.334726 14.5085 0.411579C19.3955 1.24082 23.3867 5.04087 24.4543 9.8749C25.7123 15.5743 22.8985 21.3274 17.6401 23.8073C10.3365 27.2522 1.62361 22.7792 0.20279 14.8523C0.116249 14.3628 0.0645828 13.8668 0 13.3733V11.8266C0.078791 11.2783 0.138207 10.7287 0.239602 10.183C1.16249 5.25206 5.27577 1.22791 10.2189 0.418037C10.6781 0.342475 11.1412 0.288872 11.6023 0.227518L13.1491 0.224289ZM5.25123 21.7878C5.43852 21.5295 5.62516 21.2712 5.81568 21.0128C5.99651 20.7681 6.19801 20.7158 6.38595 20.8604C6.57388 21.0051 6.57259 21.1988 6.40338 21.4365C6.21738 21.6948 6.02751 21.9532 5.82924 22.2283C6.63508 22.7821 7.50983 23.2283 8.43128 23.5555C8.54043 23.2235 8.64118 22.9096 8.74645 22.6016C8.83492 22.3433 9.00478 22.2373 9.21338 22.3032C9.43361 22.3717 9.51369 22.5615 9.43038 22.8309C9.33286 23.1434 9.23082 23.4547 9.1249 23.7854C10.0605 24.0581 11.0272 24.21 12.0014 24.2375C12.0059 24.1341 12.0118 24.0553 12.0124 23.9791C12.0156 23.6969 12.0066 23.4147 12.0227 23.1337C12.0219 23.0886 12.0305 23.0437 12.048 23.0021C12.0655 22.9605 12.0916 22.923 12.1245 22.8921C12.1575 22.8612 12.1965 22.8375 12.2392 22.8226C12.2818 22.8077 12.3271 22.802 12.3721 22.8057C12.5769 22.8057 12.7021 22.9226 12.7293 23.1286C12.7384 23.2327 12.7415 23.3373 12.7383 23.4418C12.7383 23.704 12.7383 23.9662 12.7383 24.2452C13.7432 24.2039 14.6894 24.0695 15.6264 23.7822C15.5089 23.4192 15.394 23.0853 15.2945 22.7488C15.2797 22.7046 15.2741 22.6577 15.2781 22.6112C15.2821 22.5647 15.2956 22.5195 15.3178 22.4784C15.3399 22.4373 15.3703 22.4012 15.4069 22.3723C15.4436 22.3434 15.4857 22.3223 15.5309 22.3103C15.7324 22.2457 15.879 22.3265 15.9674 22.5086C16.0047 22.5976 16.0364 22.6888 16.0624 22.7818C16.1476 23.0369 16.2329 23.292 16.3207 23.5619C17.2424 23.232 18.1172 22.7833 18.9228 22.227C18.7555 21.9958 18.6057 21.7872 18.4545 21.5812C18.1813 21.2047 18.1613 21.0064 18.3809 20.8533C18.6005 20.7003 18.7684 20.7816 19.0345 21.1459L19.5111 21.802C20.2851 21.2039 20.9796 20.5094 21.5778 19.7354C21.3071 19.5416 21.0482 19.3518 20.7905 19.1625C20.5457 18.9824 20.4928 18.7802 20.6374 18.5916C20.7743 18.4134 20.9765 18.405 21.2129 18.5736C21.4712 18.7602 21.7295 18.9501 22.0053 19.1483C22.5595 18.3424 23.0059 17.4674 23.3331 16.5457C23.0005 16.4365 22.6873 16.3358 22.3786 16.2311C22.1202 16.1446 22.015 15.9728 22.0802 15.7642C22.1487 15.544 22.3385 15.4632 22.6072 15.5472C22.9198 15.6447 23.2317 15.7461 23.5604 15.8514C23.8369 14.914 23.9902 13.9447 24.0164 12.9678C23.8711 12.9678 23.7523 12.9678 23.6328 12.9678C23.3835 12.9645 23.1323 12.9723 22.8849 12.9503C22.6912 12.9335 22.5827 12.7966 22.582 12.6042C22.5756 12.5181 22.6035 12.4329 22.6597 12.3673C22.7158 12.3018 22.7956 12.2611 22.8817 12.2541C22.9777 12.2432 23.0744 12.2398 23.171 12.2438C23.4494 12.2438 23.7284 12.2438 24.0035 12.2438C24.0474 11.5534 23.7568 9.79804 23.5314 9.36275C23.2207 9.46221 22.9088 9.56555 22.5943 9.65984C22.5123 9.68438 22.3915 9.72054 22.3418 9.68179C22.23 9.59719 22.1022 9.4803 22.0731 9.35501C22.0305 9.17224 22.1648 9.04242 22.345 8.98301C22.6679 8.8758 22.9908 8.77053 23.3137 8.66526C23.16 8.01943 22.345 6.44232 21.9795 6.07549C21.7011 6.27634 21.426 6.48559 21.1399 6.67805C20.8977 6.84015 20.5819 6.71809 20.5748 6.44749C20.5716 6.31832 20.6652 6.15751 20.7685 6.07032C21.0204 5.85333 21.3013 5.67056 21.57 5.47487C21.0824 4.78513 19.9141 3.6362 19.4924 3.4276C19.309 3.68011 19.1255 3.93457 18.9389 4.18709C18.7523 4.43961 18.5572 4.48546 18.368 4.34338C18.1884 4.2084 18.1794 4.00497 18.3473 3.76924C18.5333 3.51091 18.7232 3.25258 18.9228 2.97358C18.1162 2.4198 17.2411 1.97324 16.3194 1.64511C16.2103 1.98482 16.1089 2.29094 16.0056 2.59448C15.9177 2.85281 15.7472 2.96066 15.5406 2.89737C15.319 2.83279 15.237 2.63904 15.3203 2.37167C15.4178 2.05844 15.5192 1.74651 15.6258 1.41326C14.6909 1.14032 13.7248 0.98839 12.7512 0.961179C12.7461 1.06257 12.7396 1.14136 12.739 1.21951C12.739 1.4449 12.739 1.67159 12.739 1.89569C12.739 2.22636 12.6162 2.39492 12.3825 2.39879C12.1487 2.40267 12.0176 2.23088 12.0137 1.90796C12.0137 1.81109 12.0137 1.71421 12.0137 1.61799V0.956012C11.0355 0.984815 10.0652 1.14003 9.12684 1.41778C9.23792 1.76523 9.35998 2.08169 9.43361 2.40848C9.44666 2.47941 9.44508 2.55225 9.42898 2.62255C9.41287 2.69285 9.38258 2.75911 9.33996 2.81729C9.16365 3.02072 8.85688 2.91287 8.75872 2.62871C8.6457 2.30579 8.5443 1.98288 8.43257 1.64124C7.51084 1.96953 6.63623 2.41747 5.83118 2.97358C6.04043 3.25968 6.2374 3.52641 6.42599 3.79572C6.5784 4.01336 6.55515 4.22196 6.37303 4.34855C6.19091 4.47513 5.99651 4.42798 5.83441 4.21098C5.64066 3.94749 5.44691 3.68011 5.24154 3.40112C4.46683 3.99847 3.77224 4.69306 3.17489 5.46777C3.44485 5.66151 3.70382 5.85526 3.96086 6.0432C4.20563 6.22468 4.2573 6.42682 4.11263 6.61411C3.96797 6.8014 3.77422 6.79882 3.5372 6.62961C3.27887 6.44361 3.02054 6.25503 2.74412 6.05805C2.19278 6.8627 1.74798 7.73537 1.42082 8.65428C1.75536 8.76472 2.06665 8.86353 2.37729 8.97009C2.63562 9.05986 2.74025 9.22842 2.67373 9.43961C2.60721 9.65079 2.4154 9.73798 2.14544 9.65402C1.83221 9.5565 1.52092 9.45511 1.19414 9.34984C0.917209 10.2896 0.763083 11.2612 0.735598 12.2406H1.01912C1.28455 12.2406 1.55128 12.2348 1.81671 12.2451C1.8632 12.244 1.90944 12.2521 1.95275 12.269C1.99606 12.286 2.03557 12.3113 2.06898 12.3437C2.1024 12.376 2.12905 12.4146 2.14739 12.4574C2.16572 12.5001 2.17538 12.546 2.17579 12.5925C2.17967 12.7863 2.04663 12.9322 1.83092 12.9568C1.71859 12.966 1.60581 12.9688 1.49315 12.9652C1.24645 12.9652 0.999741 12.9652 0.734306 12.9652C0.761927 13.9437 0.916274 14.9145 1.19349 15.8533C1.55645 15.7364 1.88969 15.6208 2.22681 15.5214C2.27109 15.5066 2.3179 15.5011 2.3644 15.505C2.4109 15.509 2.4561 15.5224 2.49725 15.5444C2.53841 15.5664 2.57465 15.5965 2.60377 15.633C2.63289 15.6694 2.65427 15.7115 2.66662 15.7565C2.73121 15.9567 2.65177 16.1039 2.46965 16.1943C2.38844 16.2293 2.30493 16.2586 2.21971 16.2822C1.95686 16.3706 1.69401 16.4578 1.41565 16.5508C1.74542 17.4704 2.19351 18.3432 2.74864 19.147L3.47391 18.6233C3.77551 18.405 3.98024 18.3992 4.12361 18.6046C4.26698 18.8099 4.19659 18.9921 3.89111 19.2162L3.19168 19.7264C3.51007 20.245 4.66158 21.4029 5.25123 21.7878Z" fill="black"/>
<path d="M12.3588 3.85001C14.4446 3.84979 16.4621 4.59281 18.0496 5.94576C19.637 7.29871 20.6903 9.17304 21.0207 11.2325C21.7756 15.9225 18.5807 20.3935 13.8888 21.2137C9.12839 22.0449 4.57272 18.8746 3.7719 14.1142C3.23844 10.9444 4.22398 8.25585 6.5651 6.06197C6.77306 5.86822 6.98554 5.85724 7.1386 6.02128C7.30199 6.1963 7.27422 6.39457 7.04237 6.60253C5.75657 7.74623 4.87338 9.2737 4.52364 10.9586C3.58461 15.3367 6.51731 19.6986 10.927 20.4885C15.2437 21.2635 19.3144 18.5187 20.2379 14.2155C21.1679 9.88204 18.1978 5.47233 13.8481 4.71284C11.8906 4.37119 10.0532 4.68377 8.3308 5.67189C8.13705 5.78168 7.95686 5.83464 7.78443 5.65252C7.61199 5.47039 7.66882 5.21916 7.92005 5.07127C8.67244 4.62436 9.47004 4.27819 10.3271 4.10253C10.9942 3.96497 11.6755 3.89328 12.3504 3.79253L12.3588 3.85001Z" fill="black"/>
<path d="M12.3853 19.9008C11.2625 19.9025 10.1544 19.6446 9.14777 19.1471C8.83842 18.9934 8.78223 18.7867 8.98567 18.5051C9.43258 17.8845 9.87627 17.2613 10.3355 16.6497C11.3688 15.2702 13.3637 15.2624 14.4042 16.6355C14.8711 17.2509 15.3174 17.8819 15.7688 18.5084C15.9703 18.7886 15.9122 18.9921 15.5983 19.1484C14.5995 19.643 13.4999 19.9005 12.3853 19.9008ZM14.9751 18.6453C14.5979 18.1286 14.2466 17.6365 13.8888 17.1515C13.0847 16.0613 11.6684 16.06 10.865 17.1515C10.5421 17.5919 10.2192 18.0369 9.90016 18.4806C9.86529 18.529 9.83558 18.5826 9.79489 18.6537C11.5251 19.3486 13.2262 19.3473 14.9751 18.6453Z" fill="black"/>
<path d="M9.63083 14.3247C9.63858 14.8444 9.4772 15.3526 9.171 15.7726C8.7228 16.4023 8.26684 17.0262 7.80959 17.6501C7.60487 17.9284 7.38722 17.9433 7.14891 17.692C5.53822 15.9916 4.87689 13.9721 5.13781 11.649C5.19076 11.1789 5.35674 11.0833 5.80365 11.2286C6.51406 11.4598 7.229 11.6807 7.93489 11.9248C8.4348 12.0944 8.86816 12.418 9.17283 12.8492C9.47749 13.2803 9.63782 13.7968 9.63083 14.3247ZM7.44729 16.9267C7.86384 16.3455 8.29461 15.7991 8.65821 15.2133C9.19037 14.3576 8.87521 13.1738 7.96976 12.7476C7.2981 12.4305 6.57219 12.2406 5.86436 11.9913C5.61895 13.385 6.14271 15.5459 7.44729 16.9267Z" fill="black"/>
<path d="M19.6825 12.4634C19.6476 14.5488 18.9818 16.237 17.6423 17.652C17.3517 17.9594 17.1567 17.9433 16.9048 17.5977C16.4876 17.0249 16.0684 16.4533 15.6551 15.8779C14.5669 14.3634 15.1972 12.4434 16.9674 11.8738C17.6481 11.6535 18.3275 11.4288 19.0089 11.2086C19.3699 11.0917 19.5456 11.1937 19.5972 11.5722C19.6444 11.9138 19.6638 12.2587 19.6825 12.4634ZM18.9282 11.9984C18.3101 12.198 17.736 12.3769 17.1657 12.568C15.8876 12.9969 15.453 14.3473 16.2383 15.4465C16.556 15.8921 16.8802 16.3326 17.2032 16.7743C17.2387 16.8228 17.2826 16.8647 17.3323 16.9222C18.5355 15.4962 19.0522 13.8758 18.9282 11.9984Z" fill="black"/>
<path d="M13.1015 7.04944C13.1015 6.64644 13.1015 6.24409 13.1015 5.84109C13.1015 5.49235 13.2681 5.34122 13.6027 5.40451C15.9548 5.85401 17.7043 7.13081 18.8513 9.23492C18.9927 9.49325 18.9055 9.7096 18.6214 9.80389C17.8587 10.0577 17.0998 10.3251 16.3274 10.5453C15.9508 10.6538 15.5541 10.6732 15.1686 10.6019C14.7832 10.5307 14.4197 10.3707 14.1067 10.1347C13.7938 9.89872 13.54 9.59315 13.3656 9.24216C13.1911 8.89118 13.1007 8.50442 13.1015 8.11247C13.0989 7.75791 13.1015 7.40335 13.1015 7.04944ZM18.002 9.25042C17.2141 7.73531 15.3774 6.47336 13.8384 6.21503C13.8384 6.92544 13.7822 7.63585 13.8513 8.33593C13.9617 9.45321 15.0435 10.152 16.1233 9.8491C16.7491 9.67021 17.3633 9.4545 18.002 9.25042Z" fill="black"/>
<path d="M11.6136 7.04944C11.6136 7.53962 11.6723 8.0382 11.6026 8.5187C11.5505 8.87023 11.424 9.20659 11.2315 9.50527C11.0389 9.80396 10.7848 10.0581 10.4861 10.2506C10.1874 10.4432 9.85105 10.5697 9.49952 10.6217C9.14798 10.6738 8.78939 10.6501 8.44772 10.5524C7.66756 10.3309 6.89773 10.0596 6.13049 9.80389C5.84633 9.7096 5.75914 9.49583 5.90058 9.23557C7.04498 7.1306 8.79453 5.85358 11.1492 5.40451C11.4831 5.33993 11.6478 5.49235 11.6504 5.84109C11.6504 6.24409 11.6504 6.64644 11.6504 7.04944H11.6136ZM6.72013 9.24073C7.40858 9.46031 8.04473 9.68894 8.69507 9.8646C9.67221 10.1281 10.7398 9.47711 10.8644 8.47672C10.9574 7.73466 10.8831 6.97065 10.8831 6.19565C9.10647 6.6374 7.72504 7.63972 6.72013 9.24073Z" fill="black"/>
<path d="M12.3801 11.1504C12.6671 11.1512 12.9475 11.2372 13.1857 11.3975C13.4238 11.5577 13.609 11.7851 13.7178 12.0507C13.8266 12.3164 13.8542 12.6083 13.7969 12.8896C13.7396 13.1709 13.6001 13.4289 13.3961 13.6308C13.1921 13.8327 12.9327 13.9696 12.6508 14.024C12.369 14.0783 12.0773 14.0478 11.8128 13.9363C11.5483 13.8248 11.3229 13.6372 11.165 13.3974C11.0072 13.1576 10.9241 12.8764 10.9263 12.5894C10.9301 12.2063 11.0849 11.8403 11.3571 11.5708C11.6294 11.3013 11.997 11.1503 12.3801 11.1504ZM13.1002 12.5913C13.0985 12.4477 13.0542 12.3079 12.9729 12.1896C12.8916 12.0713 12.7771 11.9797 12.6437 11.9266C12.5103 11.8735 12.3642 11.8612 12.2238 11.8913C12.0834 11.9214 11.9552 11.9924 11.8553 12.0955C11.7553 12.1986 11.6883 12.3291 11.6627 12.4703C11.637 12.6115 11.6539 12.7572 11.7111 12.8889C11.7684 13.0205 11.8635 13.1322 11.9843 13.2097C12.1051 13.2872 12.2462 13.3271 12.3898 13.3243C12.5801 13.3181 12.7606 13.2382 12.8932 13.1014C13.0257 12.9647 13.0999 12.7817 13.1002 12.5913Z" fill="black"/>
<path d="M11.2454 14.6424C11.2464 14.7396 11.209 14.8333 11.1412 14.903C11.0734 14.9727 10.9809 15.0127 10.8837 15.0144C10.7912 15.0125 10.703 14.9751 10.6372 14.91C10.5715 14.8449 10.5333 14.757 10.5304 14.6645C10.5276 14.572 10.5604 14.482 10.6221 14.413C10.6837 14.344 10.7695 14.3013 10.8617 14.2937C10.9099 14.2913 10.958 14.2984 11.0033 14.3146C11.0487 14.3308 11.0904 14.3559 11.1261 14.3883C11.1617 14.4207 11.1906 14.4598 11.2111 14.5035C11.2316 14.5471 11.2432 14.5943 11.2454 14.6424Z" fill="black"/>
<path d="M13.8726 14.293C13.9658 14.2982 14.0534 14.3392 14.1169 14.4075C14.1805 14.4758 14.2152 14.566 14.2137 14.6593C14.2122 14.7526 14.1746 14.8417 14.1089 14.9079C14.0431 14.9741 13.9543 15.0123 13.861 15.0144C13.8124 15.0156 13.7641 15.0069 13.719 14.9888C13.6738 14.9708 13.6328 14.9439 13.5983 14.9097C13.5638 14.8754 13.5366 14.8346 13.5183 14.7896C13.5 14.7445 13.491 14.6963 13.4917 14.6477C13.4925 14.5991 13.5031 14.5512 13.5229 14.5068C13.5426 14.4624 13.5711 14.4224 13.6067 14.3893C13.6423 14.3562 13.6842 14.3306 13.7299 14.314C13.7756 14.2975 13.8241 14.2904 13.8726 14.293Z" fill="black"/>
<path d="M9.60701 11.8189C9.60631 11.7708 9.61526 11.7231 9.63331 11.6786C9.65136 11.634 9.67815 11.5936 9.71211 11.5595C9.74606 11.5255 9.78648 11.4987 9.83099 11.4805C9.8755 11.4624 9.9232 11.4534 9.97125 11.454C10.0641 11.4584 10.1519 11.4978 10.2168 11.5643C10.2818 11.6308 10.3191 11.7195 10.3213 11.8124C10.3221 11.8605 10.3131 11.9083 10.2948 11.9528C10.2766 11.9973 10.2494 12.0376 10.215 12.0712C10.1806 12.1048 10.1397 12.131 10.0947 12.1483C10.0498 12.1655 10.0019 12.1734 9.95382 12.1715C9.90773 12.1717 9.86207 12.1626 9.81953 12.1449C9.77699 12.1272 9.73843 12.1011 9.70611 12.0683C9.6738 12.0354 9.64838 11.9964 9.63136 11.9536C9.61434 11.9108 9.60606 11.865 9.60701 11.8189Z" fill="black"/>
<path d="M14.7801 11.454C14.873 11.4524 14.9629 11.487 15.0308 11.5505C15.0987 11.614 15.1391 11.7015 15.1437 11.7943C15.148 11.8422 15.1422 11.8905 15.1268 11.9361C15.1114 11.9817 15.0866 12.0235 15.0541 12.059C15.0216 12.0944 14.982 12.1227 14.9379 12.1419C14.8939 12.1612 14.8462 12.171 14.7981 12.1709C14.7053 12.1751 14.6145 12.1423 14.5457 12.0797C14.477 12.0171 14.4358 11.9298 14.4313 11.837C14.4291 11.7889 14.4363 11.7409 14.4526 11.6956C14.4689 11.6504 14.494 11.6088 14.5263 11.5732C14.5587 11.5377 14.5978 11.5088 14.6413 11.4884C14.6849 11.4679 14.732 11.4562 14.7801 11.454Z" fill="black"/>
<path d="M12.3847 9.70121C12.4568 9.70198 12.527 9.72435 12.5864 9.76543C12.6457 9.80651 12.6913 9.86441 12.7174 9.93168C12.7435 9.99894 12.7488 10.0725 12.7327 10.1428C12.7166 10.2131 12.6798 10.277 12.627 10.3262C12.5743 10.3754 12.508 10.4077 12.4367 10.4189C12.3654 10.43 12.2924 10.4196 12.2271 10.3889C12.1619 10.3582 12.1073 10.3086 12.0704 10.2466C12.0336 10.1846 12.0161 10.1129 12.0204 10.0409C12.0251 9.94806 12.0657 9.86068 12.1337 9.79727C12.2017 9.73387 12.2917 9.69941 12.3847 9.70121Z" fill="black"/>
</g>
<defs>
<clipPath id="clip0_3152_756">
<rect width="24.752" height="24.7578" fill="white" transform="translate(0 0.224289)"/>
</clipPath>
</defs>
</svg>
