<svg width="28" height="16" viewBox="0 0 28 16" fill="none" xmlns="http://www.w3.org/2000/svg">
<path d="M13.47 15.82C10.36 15.82 7.25999 15.82 4.14999 15.82C1.33999 15.8 -0.280013 14.12 -1.25598e-05 11.32C0.279987 8.52 0.799987 5.68 1.33999 2.89C1.4712 2.0346 1.92183 1.26075 2.60102 0.724444C3.28022 0.188139 4.13748 -0.0707372 4.99999 -1.25822e-06H21.92C22.8057 -0.0791072 23.6874 0.189885 24.3781 0.749935C25.0689 1.30999 25.5143 2.11705 25.62 3C26.17 5.88 26.62 8.77 27.02 11.67C27.0844 12.2075 27.031 12.7525 26.8636 13.2673C26.6962 13.7821 26.4187 14.2543 26.0505 14.651C25.6823 15.0478 25.2321 15.3597 24.7312 15.565C24.2303 15.7703 23.6908 15.8642 23.15 15.84C19.92 15.84 16.7 15.82 13.47 15.82ZM13.38 15C16.61 15 19.84 15 23.06 15C23.5069 15.0302 23.9549 14.9599 24.3711 14.7942C24.7873 14.6286 25.1611 14.3719 25.4651 14.043C25.7692 13.714 25.9957 13.3212 26.128 12.8932C26.2604 12.4653 26.2952 12.0132 26.23 11.57C25.85 8.83 25.4133 6.10333 24.92 3.39C24.57 1.5 23.59 0.769999 21.63 0.769999C16.21 0.763332 10.79 0.763332 5.36999 0.769999C3.36999 0.769999 2.36999 1.6 2.04999 3.53C1.61999 6.05 1.20999 8.58 0.829987 11.1C0.449987 13.62 1.75999 15 4.18999 15C7.25999 15.05 10.32 15 13.38 15Z" fill="black"/>
<path d="M14 1.7C16.84 1.7 19.57 1.7 22.3 1.7C22.7444 1.682 23.179 1.83286 23.5167 2.12226C23.8543 2.41167 24.0699 2.81815 24.12 3.26C24.6 6.06 25.12 8.87 25.44 11.69C25.5009 12.0092 25.4854 12.3383 25.3949 12.6503C25.3043 12.9624 25.1411 13.2486 24.9188 13.4856C24.6965 13.7225 24.4212 13.9035 24.1155 14.0138C23.8099 14.1241 23.4825 14.1605 23.16 14.12C20.93 14.12 18.69 14.12 16.46 14.12C16.3028 14.097 16.1485 14.0567 16 14L19.7 7.78L19.23 7.48C18.9583 7.79897 18.7046 8.13282 18.47 8.48C17.47 10.09 16.52 11.74 15.47 13.3C15.285 13.5438 15.0538 13.7488 14.7896 13.9032C14.5253 14.0576 14.2333 14.1585 13.93 14.2C12.09 14.31 10.25 14.2 8.20003 14.2L12 7.75L11.52 7.44C11.2515 7.75906 11.0012 8.09291 10.77 8.44C9.77003 10.04 8.77003 11.64 7.77003 13.29C7.61057 13.6085 7.35119 13.866 7.03155 14.0231C6.7119 14.1802 6.3496 14.2283 6.00003 14.16C5.26003 14.1 4.51003 14.16 3.77003 14.16C3.45712 14.1893 3.14164 14.147 2.84751 14.0363C2.55338 13.9256 2.28833 13.7493 2.07245 13.5209C1.85657 13.2925 1.69553 13.0179 1.60155 12.718C1.50757 12.4181 1.48311 12.1008 1.53003 11.79C1.89003 8.93 2.37003 6.08 2.87003 3.24C2.92418 2.81947 3.13175 2.43376 3.45289 2.15692C3.77404 1.88007 4.18612 1.7316 4.61003 1.74C7.38003 1.74 10.15 1.74 13 1.74V3.56L10.92 4L10.99 4.57C12.55 4.57 14.12 4.57 15.69 4.57C15.8 4.57 16 4.26 15.97 4.14C15.9333 4.05517 15.8754 3.98119 15.8018 3.92516C15.7283 3.86913 15.6416 3.83292 15.55 3.82C15.06 3.82 14.55 3.82 14 3.82V1.7ZM12.46 2.77C12.06 2.57 11.97 2.49 11.88 2.49H4.88003C3.88003 2.49 3.62003 3.15 3.49003 3.93C3.12003 6.44 2.70003 9 2.37003 11.5C2.31003 11.99 2.58003 12.92 2.86003 12.99C3.97151 13.2627 5.11758 13.3672 6.26003 13.3C6.66003 13.3 7.11003 12.64 7.40003 12.2C8.40003 10.61 9.40003 8.95 10.46 7.4C10.6545 7.19381 10.8966 7.03855 11.1652 6.94788C11.4337 6.8572 11.7204 6.83389 12 6.88C12.75 7.11 12.81 7.88 12.46 8.53C12.23 8.97 11.97 9.39 11.71 9.81L9.50003 13.37C10.88 13.37 11.98 13.3 13.07 13.37C13.4924 13.4349 13.9244 13.357 14.2975 13.1487C14.6706 12.9404 14.9636 12.6136 15.13 12.22C16.04 10.6 17.06 9.05 18.05 7.48C18.46 6.82 19 6.36 19.79 6.87C20.58 7.38 20.47 8.03 20.07 8.72C19.84 9.11 19.58 9.49 19.34 9.87C18.67 10.97 18.01 12.07 17.23 13.34C19.31 13.34 21.09 13.34 22.86 13.34C24.34 13.34 24.86 12.8 24.63 11.34C24.27 8.81 23.83 6.34 23.43 3.77C23.4224 3.573 23.3733 3.37984 23.2859 3.20314C23.1985 3.02645 23.0747 2.87021 22.9227 2.74465C22.7707 2.6191 22.5939 2.52706 22.4039 2.47456C22.2139 2.42206 22.0149 2.41028 21.82 2.44C19.71 2.44 17.6 2.44 15.49 2.44C15.246 2.46244 15.0047 2.50934 14.77 2.58C15.14 2.84 15.56 2.77 15.83 2.95C16.1 3.13 16.83 3.65 16.83 3.95C16.83 4.25 16.31 5.15 15.96 5.18C14.356 5.31002 12.7441 5.31002 11.14 5.18C10.8 5.18 10.3 4.39 10.27 3.95C10.24 3.51 10.81 3.16 11.2 2.88C11.41 2.81 11.82 2.86 12.46 2.77Z" fill="black"/>
</svg>
