<svg width="43" height="41" viewBox="0 0 43 41" fill="none" xmlns="http://www.w3.org/2000/svg">
<path d="M10 39C9.1818 39 8.4002 38.6588 6.83691 37.9764C5.01233 37.18 1.96906 35.5703 1 35V23.5M10 39C10.8182 39 11.5998 38.6588 13.1631 37.9764C17.0544 36.2779 19 35.4286 19 34V23.5M10 39V28" stroke="white" stroke-width="1.5" stroke-linecap="round" stroke-linejoin="round"/>
<path d="M6.32592 26.6914L3.40472 25.2779C1.80157 24.5021 1 24.1142 1 23.5C1 22.8858 1.80157 22.4979 3.40472 21.7221L6.32592 20.3086C8.1288 19.4362 9.0303 19 10 19C10.9697 19 11.8712 19.4362 13.6741 20.3086L16.5953 21.7221C18.1984 22.4979 19 22.8858 19 23.5C19 24.1142 18.1984 24.5021 16.5953 25.2779L13.6741 26.6914C11.8712 27.5638 10.9697 28 10 28C9.0303 28 8.1288 27.5638 6.32592 26.6914Z" stroke="white" stroke-width="1.5" stroke-linecap="round" stroke-linejoin="round"/>
<path d="M15.1366 21.0156L4.86719 25.9848" stroke="white" stroke-width="1.5" stroke-linecap="round" stroke-linejoin="round"/>
<path d="M23 21C22.1818 21 21.4002 20.6588 19.8369 19.9764C18.0123 19.18 14.9691 17.5703 14 17V5.5M23 21C23.8182 21 24.5998 20.6588 26.1631 19.9764C30.0544 18.2779 32 17.4286 32 16V5.5M23 21V10" stroke="white" stroke-width="1.5" stroke-linecap="round" stroke-linejoin="round"/>
<path d="M19.3259 8.69138L16.4047 7.27785C14.8016 6.5021 14 6.11423 14 5.5C14 4.88577 14.8016 4.4979 16.4047 3.72215L19.3259 2.30862C21.1288 1.43621 22.0303 1 23 1C23.9697 1 24.8712 1.4362 26.6741 2.30862L29.5953 3.72215C31.1984 4.4979 32 4.88577 32 5.5C32 6.11423 31.1984 6.5021 29.5953 7.27785L26.6741 8.69138C24.8712 9.5638 23.9697 10 23 10C22.0303 10 21.1288 9.5638 19.3259 8.69138Z" stroke="white" stroke-width="1.5" stroke-linecap="round" stroke-linejoin="round"/>
<path d="M28.1366 3.01562L17.8672 7.98485" stroke="white" stroke-width="1.5" stroke-linecap="round" stroke-linejoin="round"/>
<path d="M33 40C32.1818 40 31.4002 39.6588 29.8369 38.9764C28.0123 38.18 24.9691 36.5703 24 36V24.5M33 40C33.8182 40 34.5998 39.6588 36.1631 38.9764C40.0544 37.2779 42 36.4286 42 35V24.5M33 40V29" stroke="white" stroke-width="1.5" stroke-linecap="round" stroke-linejoin="round"/>
<path d="M29.3259 27.6914L26.4047 26.2779C24.8016 25.5021 24 25.1142 24 24.5C24 23.8858 24.8016 23.4979 26.4047 22.7221L29.3259 21.3086C31.1288 20.4362 32.0303 20 33 20C33.9697 20 34.8712 20.4362 36.6741 21.3086L39.5953 22.7221C41.1984 23.4979 42 23.8858 42 24.5C42 25.1142 41.1984 25.5021 39.5953 26.2779L36.6741 27.6914C34.8712 28.5638 33.9697 29 33 29C32.0303 29 31.1288 28.5638 29.3259 27.6914Z" stroke="white" stroke-width="1.5" stroke-linecap="round" stroke-linejoin="round"/>
<path d="M38.1366 22.0156L27.8672 26.9848" stroke="white" stroke-width="1.5" stroke-linecap="round" stroke-linejoin="round"/>
</svg>
