<svg width="34" height="34" viewBox="0 0 34 34" fill="none" xmlns="http://www.w3.org/2000/svg">
<path d="M17 32C15.6363 32 14.3337 31.5131 11.7282 30.5393C5.24273 28.1151 2 26.9032 2 24.8644V10.6169M17 32C18.3637 32 19.6663 31.5131 22.2718 30.5393C28.7573 28.1151 32 26.9032 32 24.8644V10.6169M17 32V17.2531M2 10.6169C2 11.5227 3.33595 12.0947 6.00787 13.2387L10.8765 15.3233C13.8813 16.6099 15.3838 17.2531 17 17.2531M2 10.6169C2 9.71114 3.33595 9.13916 6.00787 7.99517L9.5 6.5M32 10.6169C32 11.5227 30.664 12.0947 27.9922 13.2387L23.1235 15.3233C20.1187 16.6099 18.6162 17.2531 17 17.2531M32 10.6169C32 9.71114 30.664 9.13916 27.9922 7.99517L24.5 6.5M7 18.7277L10.3333 20.2025" stroke="white" stroke-width="2.5" stroke-linecap="round" stroke-linejoin="round"/>
<path d="M17.0062 2V12.4999M17.0062 12.4999C17.4447 12.5053 17.8772 12.2296 18.1964 11.893L20.3334 9.59261M17.0062 12.4999C16.5832 12.4948 16.1549 12.2205 15.8162 11.893L13.6667 9.59261" stroke="white" stroke-width="2.5" stroke-linecap="round"/>
</svg>
