<svg width="32" height="31" viewBox="0 0 32 31" fill="none" xmlns="http://www.w3.org/2000/svg">
<path d="M7.58536 29.3182C6.98668 29.3182 6.41478 29.0855 5.27091 28.6203C3.93585 28.0773 1.70907 26.9797 1 26.5909V18.75M7.58536 29.3182C8.18405 29.3182 8.75595 29.0855 9.89983 28.6203C12.7471 27.4622 14.1707 26.8831 14.1707 25.9091V18.75M7.58536 29.3182V21.8182" stroke="white" stroke-width="1.5" stroke-linecap="round" stroke-linejoin="round"/>
<path d="M4.89701 20.926L2.75955 19.9622C1.58651 19.4333 1 19.1689 1 18.7501C1 18.3313 1.58651 18.0668 2.75955 17.5379L4.89701 16.5741C6.21619 15.9793 6.87583 15.6819 7.58536 15.6819C8.2949 15.6819 8.95454 15.9793 10.2737 16.5741L12.4112 17.5379C13.5842 18.0668 14.1707 18.3313 14.1707 18.7501C14.1707 19.1689 13.5842 19.4333 12.4112 19.9622L10.2737 20.926C8.95454 21.5208 8.2949 21.8182 7.58536 21.8182C6.87583 21.8182 6.21619 21.5208 4.89701 20.926Z" stroke="white" stroke-width="1.5" stroke-linecap="round" stroke-linejoin="round"/>
<path d="M11.3439 17.0562L3.82965 20.4443" stroke="white" stroke-width="1.5" stroke-linecap="round" stroke-linejoin="round"/>
<path d="M24.4146 30.0001C23.816 30.0001 23.2441 29.7674 22.1002 29.3022C20.7651 28.7592 18.5384 27.6616 17.8293 27.2728V19.4319M24.4146 30.0001C25.0133 30.0001 25.5852 29.7674 26.7291 29.3022C29.5764 28.1441 31 27.565 31 26.591V19.4319M24.4146 30.0001V22.5001" stroke="white" stroke-width="1.5" stroke-linecap="round" stroke-linejoin="round"/>
<path d="M21.7263 21.6076L19.5888 20.6439C18.4158 20.115 17.8293 19.8505 17.8293 19.4317C17.8293 19.0129 18.4158 18.7485 19.5888 18.2195L21.7263 17.2558C23.0455 16.6609 23.7051 16.3635 24.4146 16.3635C25.1242 16.3635 25.7838 16.6609 27.103 17.2558L29.2405 18.2195C30.4135 18.7485 31 19.0129 31 19.4317C31 19.8505 30.4135 20.115 29.2405 20.6439L27.103 21.6076C25.7838 22.2025 25.1242 22.4999 24.4146 22.4999C23.7051 22.4999 23.0455 22.2025 21.7263 21.6076Z" stroke="white" stroke-width="1.5" stroke-linecap="round" stroke-linejoin="round"/>
<path d="M28.1731 17.738L20.6589 21.1261" stroke="white" stroke-width="1.5" stroke-linecap="round" stroke-linejoin="round"/>
<path d="M15.6341 15.0001C15.0354 15.0001 14.4635 14.7788 13.3197 14.3361C10.4724 13.2343 9.04877 12.6833 9.04877 11.7566V5.28052M15.6341 15.0001C16.2328 15.0001 16.8047 14.7788 17.9486 14.3361C20.7959 13.2343 22.2195 12.6833 22.2195 11.7566V5.28052M15.6341 15.0001V8.29693M9.04877 5.28052C9.04877 5.69225 9.63528 5.95225 10.8083 6.47224L12.9458 7.41977C14.265 8.00457 14.9246 8.29693 15.6341 8.29693M9.04877 5.28052C9.04877 4.86879 9.63528 4.6088 10.8083 4.0888L12.3414 3.40918M22.2195 5.28052C22.2195 5.69225 21.633 5.95225 20.46 6.47224L18.3225 7.41977C17.0033 8.00457 16.3437 8.29693 15.6341 8.29693M22.2195 5.28052C22.2195 4.86879 21.633 4.6088 20.46 4.0888L18.9268 3.40918M11.2439 8.96723L12.7073 9.63759" stroke="white" stroke-width="1.5" stroke-linecap="round" stroke-linejoin="round"/>
<path d="M15.6368 1.36353V6.13622M15.6368 6.13622C15.8293 6.13865 16.0192 6.01334 16.1593 5.86035L17.0975 4.81471M15.6368 6.13622C15.4511 6.13388 15.2631 6.00922 15.1144 5.86035L14.1707 4.81471" stroke="white" stroke-width="1.5" stroke-linecap="round"/>
</svg>
