<svg width="54" height="54" viewBox="0 0 54 54" fill="none" xmlns="http://www.w3.org/2000/svg">
<rect width="54" height="54" rx="6" fill="white" fill-opacity="0.07"/>
<path d="M25.3674 14.0128C23.8417 14.0734 22.3408 14.4029 20.9511 14.9863C19.5698 15.5658 18.3121 16.3689 17.24 17.3537C16.1596 18.3348 15.3143 19.5091 14.7576 20.8083C14.1762 22.1455 13.9247 23.5849 14.0195 25.0205C14.1185 26.4183 14.4855 27.7857 15.1081 29.066C15.7349 30.3425 16.605 31.5054 17.6853 32.4941C18.7574 33.4827 20.0316 34.2706 21.4336 34.8123L35.1937 39.7556C36.0638 40.0889 37.0411 40.0813 37.9029 39.7328C38.7564 39.3995 39.4203 38.7593 39.7461 37.9639C40.0966 37.1722 40.0842 36.282 39.709 35.4979C39.3461 34.6949 38.6327 34.0699 37.7462 33.7744L33.4495 32.2327C34.2247 31.8123 34.9175 31.2744 35.4947 30.638C36.0143 30.0585 36.4308 29.4069 36.7318 28.7062C37.3215 27.3463 37.6019 25.8879 37.5565 24.422C37.507 23.0318 37.1606 21.6682 36.538 20.403C35.9071 19.1416 35.0205 18.0015 33.9319 17.0393C32.8021 16.0355 31.462 15.2476 29.994 14.7287C28.526 14.1946 26.9467 13.9484 25.3674 14.009V14.0128ZM30.2496 26.2554C30.2373 26.2857 30.2249 26.3122 30.2125 26.3425L30.2043 26.3576C29.9734 26.9031 29.6311 27.4069 29.1899 27.8312C28.3322 28.6645 27.1446 29.1418 25.8952 29.1531C25.2396 29.1607 24.5881 29.0509 23.9819 28.8274C23.384 28.6153 22.8397 28.2971 22.3737 27.888C21.9243 27.4978 21.5655 27.0281 21.3181 26.5092C21.0707 25.9902 20.9388 25.4296 20.9346 24.8652C20.9264 24.2781 21.0419 23.6985 21.2769 23.1531C21.5037 22.6076 21.8459 22.1114 22.2872 21.6947C22.7119 21.297 23.2149 20.975 23.7716 20.7515C24.3407 20.5242 24.9551 20.3954 25.5736 20.3765C26.2169 20.35 26.856 20.4523 27.4539 20.6682C29.9033 21.5053 31.1527 24.0091 30.2455 26.2592L30.2496 26.2554Z" fill="white"/>
</svg>
