<svg width="30" height="30" viewBox="0 0 30 30" fill="none" xmlns="http://www.w3.org/2000/svg">
<path d="M20.3854 5.47993C19.6466 5.47993 19.2771 5.47993 18.9406 5.35506C18.8939 5.33771 18.8479 5.31864 18.8025 5.29785C18.4763 5.14819 18.2151 4.88699 17.6926 4.36459C16.4903 3.16221 15.8891 2.56103 15.1494 2.50559C15.05 2.49814 14.95 2.49814 14.8506 2.50559C14.1109 2.56103 13.5096 3.16221 12.3073 4.36458C11.7849 4.88699 11.5237 5.14819 11.1975 5.29785C11.1522 5.31864 11.1061 5.33771 11.0593 5.35506C10.7228 5.47993 10.3534 5.47993 9.61464 5.47993H9.47836C7.59348 5.47993 6.65104 5.47993 6.06549 6.06549C5.47993 6.65104 5.47993 7.59348 5.47993 9.47836V9.61464C5.47993 10.3534 5.47993 10.7228 5.35506 11.0593C5.33771 11.1061 5.31864 11.1522 5.29785 11.1975C5.14819 11.5237 4.88699 11.7849 4.36458 12.3073C3.16221 13.5096 2.56103 14.1109 2.50559 14.8506C2.49814 14.95 2.49814 15.05 2.50559 15.1494C2.56103 15.8891 3.16221 16.4903 4.36458 17.6926C4.88699 18.2151 5.14819 18.4763 5.29785 18.8025C5.31864 18.8479 5.33771 18.8939 5.35506 18.9406C5.47993 19.2771 5.47993 19.6466 5.47993 20.3854V20.5216C5.47993 22.4065 5.47993 23.349 6.06549 23.9345C6.65104 24.5201 7.59348 24.5201 9.47836 24.5201H9.61464C10.3534 24.5201 10.7228 24.5201 11.0593 24.645C11.1061 24.6623 11.1522 24.6814 11.1975 24.7021C11.5237 24.8519 11.7849 25.113 12.3073 25.6354C13.5096 26.8378 14.1109 27.439 14.8506 27.4944C14.95 27.5019 15.0499 27.5019 15.1494 27.4944C15.8891 27.439 16.4903 26.8378 17.6926 25.6354C18.2151 25.113 18.4763 24.8519 18.8025 24.7021C18.8479 24.6814 18.8939 24.6623 18.9406 24.645C19.2771 24.5201 19.6466 24.5201 20.3854 24.5201H20.5216C22.4065 24.5201 23.349 24.5201 23.9345 23.9345C24.5201 23.349 24.5201 22.4065 24.5201 20.5216V20.3854C24.5201 19.6466 24.5201 19.2771 24.645 18.9406C24.6623 18.8939 24.6814 18.8479 24.7021 18.8025C24.8519 18.4763 25.113 18.2151 25.6354 17.6926C26.8378 16.4903 27.439 15.8891 27.4944 15.1494C27.5019 15.0499 27.5019 14.95 27.4944 14.8506C27.439 14.1109 26.8378 13.5096 25.6354 12.3073C25.113 11.7849 24.8519 11.5237 24.7021 11.1975C24.6814 11.1522 24.6623 11.1061 24.645 11.0593C24.5201 10.7228 24.5201 10.3534 24.5201 9.61464V9.47836C24.5201 7.59348 24.5201 6.65104 23.9345 6.06549C23.349 5.47993 22.4065 5.47993 20.5216 5.47993H20.3854Z" stroke="white" stroke-opacity="0.88" stroke-width="2.5"/>
<path d="M19.375 15C19.375 17.4162 17.4162 19.375 15 19.375C12.5838 19.375 10.625 17.4162 10.625 15C10.625 12.5838 12.5838 10.625 15 10.625C17.4162 10.625 19.375 12.5838 19.375 15Z" stroke="white" stroke-opacity="0.88" stroke-width="2.5"/>
</svg>
