<svg width="30" height="30" viewBox="0 0 30 30" fill="none" xmlns="http://www.w3.org/2000/svg">
<path d="M3.75 13.7339V19.3656C3.75 22.9054 3.75 24.6754 4.84835 25.775C5.9467 26.8748 7.71446 26.8748 11.25 26.8748H18.75C22.2855 26.8748 24.0532 26.8748 25.1516 25.775C26.25 24.6754 26.25 22.9054 26.25 19.3656V13.7339" stroke="white" stroke-width="1.875"/>
<path d="M18.75 21.2209C17.8948 21.9799 16.5335 22.4709 15 22.4709C13.4665 22.4709 12.1051 21.9799 11.25 21.2209" stroke="white" stroke-width="1.875" stroke-linecap="round"/>
<path d="M22.2446 3.12861L7.68728 3.16496C5.51457 3.05304 4.9575 4.72817 4.9575 5.54704C4.9575 6.27942 4.86318 7.34711 3.53155 9.35381C2.19991 11.3605 2.29997 11.9566 3.05088 13.3458C3.6741 14.4988 5.25926 14.9492 6.08577 15.0249C8.71103 15.0847 9.98831 12.8146 9.98831 11.219C11.2906 15.2281 14.9945 15.2281 16.6447 14.7696C18.2982 14.3103 19.7146 12.6663 20.0488 11.219C20.2437 13.0177 20.8352 14.0672 22.5828 14.7884C24.3931 15.5354 25.9498 14.3937 26.731 13.6617C27.5121 12.9298 28.0133 11.3049 26.621 9.51906C25.6607 8.28745 25.2605 7.12719 25.1291 5.92465C25.0528 5.22786 24.986 4.47914 24.4965 4.00267C23.781 3.30637 22.7545 3.0951 22.2446 3.12861Z" stroke="white" stroke-width="1.875" stroke-linecap="round" stroke-linejoin="round"/>
</svg>
