<svg width="30" height="30" viewBox="0 0 30 30" fill="none" xmlns="http://www.w3.org/2000/svg">
<path d="M20.0024 16.875C20.0024 17.9105 20.8418 18.75 21.8774 18.75C22.9129 18.75 23.7524 17.9105 23.7524 16.875C23.7524 15.8395 22.9129 15 21.8774 15C20.8418 15 20.0024 15.8395 20.0024 16.875Z" stroke="white" stroke-width="1.5"/>
<path d="M2.50244 13.75C2.50244 9.03595 2.50244 6.67894 3.96692 5.21446C5.43138 3.75 7.7884 3.75 12.5025 3.75H17.5025C18.6649 3.75 19.2461 3.75 19.723 3.87778C21.0171 4.22453 22.0279 5.23534 22.3746 6.52942C22.5025 7.0063 22.5025 7.58754 22.5025 8.75M12.5025 8.75H20.0025C23.538 8.75 25.3058 8.75 26.4041 9.84835C27.5025 10.9467 27.5025 12.7145 27.5025 16.25V18.75C27.5025 22.2855 27.5025 24.0532 26.4041 25.1516C25.3058 26.25 23.538 26.25 20.0025 26.25H15.6256" stroke="white" stroke-width="1.5" stroke-linecap="round"/>
<path d="M12.5 21.25H7.5M7.5 21.25H2.5M7.5 21.25V26.25M7.5 21.25V16.25" stroke="white" stroke-width="1.5" stroke-linecap="round"/>
</svg>
