<svg width="30" height="28" viewBox="0 0 30 28" fill="none" xmlns="http://www.w3.org/2000/svg">
<path d="M0.414062 23.818V3.48795C0.606015 3.10743 0.880028 2.86978 1.33315 2.79411C3.06999 2.4921 4.80042 2.15755 6.53369 1.83504C9.5897 1.26403 12.646 0.694195 15.7024 0.125543C16.3076 0.0130856 16.8063 0.408454 16.8199 1.01742C16.8313 1.54364 16.8199 2.07056 16.8199 2.59748V3.71357H28.4662C29.2568 3.71357 29.5851 4.04104 29.5851 4.83036V22.4741C29.5851 23.2663 29.2597 23.5916 28.4683 23.5916H16.8263C16.8263 24.4906 16.8263 25.3464 16.8263 26.2022C16.8228 26.9024 16.3375 27.2978 15.6503 27.1698C10.9255 26.2937 6.20069 25.4195 1.47586 24.5472C0.991346 24.4588 0.61101 24.2834 0.414062 23.818ZM27.744 21.7711V5.53481H16.8399V7.32847C17.729 7.32847 18.601 7.32847 19.4723 7.32847C20.0588 7.32847 20.4656 7.70404 20.467 8.22813C20.4684 8.75222 20.0617 9.12991 19.4801 9.13345C18.7016 9.13769 17.9231 9.13345 17.1446 9.13345H16.8442V10.942C17.7197 10.942 18.5739 10.942 19.4273 10.942C20.0567 10.942 20.472 11.3104 20.467 11.8536C20.462 12.3862 20.051 12.7462 19.4402 12.7483C18.6709 12.7483 17.9017 12.7483 17.1324 12.7483H16.8385V14.5562H17.1603C17.9388 14.5562 18.718 14.5526 19.4965 14.5562C20.061 14.5604 20.4627 14.9367 20.467 15.4502C20.472 15.9742 20.0645 16.3562 19.4851 16.3604C18.8679 16.3647 18.2506 16.3604 17.6334 16.3604H16.8427V18.1682C17.7347 18.1682 18.6074 18.1682 19.483 18.1682C20.066 18.1682 20.4727 18.5502 20.4706 19.0742C20.4684 19.5983 20.061 19.9704 19.4765 19.9732C18.698 19.9767 17.9195 19.9732 17.141 19.9732H16.8406V21.7669L27.744 21.7711ZM10.0709 13.4104C10.1308 13.3319 10.1701 13.2795 10.2136 13.2279C11.1175 12.0774 12.0213 10.9269 12.9252 9.77636C13.1214 9.52669 13.237 9.25793 13.1578 8.93894C13.1228 8.76662 13.0359 8.6089 12.9084 8.48664C12.781 8.36438 12.6191 8.28336 12.4442 8.2543C12.0504 8.17579 11.7435 8.33846 11.503 8.64542C10.6943 9.67805 9.8856 10.71 9.07688 11.7412C9.00552 11.8275 8.93845 11.9123 8.85853 12.0107C8.77361 11.9201 8.70796 11.8543 8.64445 11.785C7.96299 11.0134 7.28866 10.2368 6.59792 9.47294C6.22186 9.05494 5.67027 9.02452 5.28137 9.37321C4.89247 9.7219 4.87748 10.2418 5.23427 10.6626C5.48402 10.9582 5.74519 11.2447 6.00137 11.5347L7.71395 13.4747L7.00751 14.3779C6.40739 15.1432 5.80228 15.9028 5.21072 16.6737C4.80755 17.1985 4.9624 17.8344 5.5354 18.0883C5.94856 18.2708 6.35958 18.1484 6.68426 17.7347C7.3731 16.8595 8.06003 15.9834 8.74507 15.1064C8.80501 15.0293 8.86994 14.9558 8.94416 14.8674L9.36303 15.3391C10.1009 16.1737 10.8323 17.0139 11.5787 17.8408C11.9462 18.2481 12.4913 18.2771 12.8745 17.9426C13.2577 17.6081 13.2906 17.0769 12.9423 16.6539C12.8224 16.5082 12.6933 16.371 12.5684 16.2296C11.7342 15.2946 10.9101 14.3609 10.0709 13.4104Z" fill="white"/>
</svg>
