<svg width="32" height="33" viewBox="0 0 32 33" fill="none" xmlns="http://www.w3.org/2000/svg">
<path d="M25.846 32.1391H6.15176C2.75371 32.1391 0 29.3734 0 25.9606V6.17851C0 2.76568 2.75371 0 6.15176 0H25.8482C29.2463 0 32 2.76568 32 6.17851V25.9584C32 29.3689 29.2508 32.1369 25.8528 32.1391H25.8482H25.846Z" fill="#FF3D00"/>
<path d="M15.4894 7.97781C14.6397 8.01381 13.8038 8.20954 13.0299 8.55602C12.2606 8.90024 11.5602 9.37721 10.9631 9.96217C10.3614 10.5449 9.89065 11.2423 9.58063 12.014C9.25683 12.8082 9.11674 13.6631 9.16956 14.5158C9.22468 15.346 9.42906 16.1582 9.77582 16.9187C10.1249 17.6769 10.6094 18.3676 11.2111 18.9548C11.8082 19.542 12.5178 20.0099 13.2986 20.3317L20.9618 23.2677C21.4464 23.4657 21.9906 23.4612 22.4706 23.2542C22.9459 23.0562 23.3157 22.676 23.4971 22.2035C23.6923 21.7333 23.6854 21.2046 23.4764 20.7389C23.2743 20.2619 22.877 19.8907 22.3833 19.7152L19.9904 18.7995C20.4221 18.5498 20.8079 18.2303 21.1294 17.8523C21.4188 17.5081 21.6507 17.1212 21.8184 16.7049C22.1468 15.8972 22.3029 15.0311 22.2777 14.1604C22.2501 13.3347 22.0572 12.5247 21.7104 11.7733C21.3591 11.0241 20.8654 10.3469 20.2591 9.77543C19.6299 9.17922 18.8835 8.71126 18.066 8.40303C17.2485 8.0858 16.3689 7.93956 15.4894 7.97556V7.97781ZM18.2084 15.2493C18.2015 15.2673 18.1946 15.283 18.1877 15.301L18.1831 15.31C18.0545 15.634 17.8639 15.9332 17.6182 16.1852C17.1405 16.6802 16.4791 16.9637 15.7833 16.9704C15.4182 16.9749 15.0554 16.9097 14.7178 16.7769C14.3848 16.6509 14.0817 16.4619 13.8222 16.219C13.5718 15.9872 13.3721 15.7083 13.2343 15.4C13.0965 15.0918 13.023 14.7588 13.0207 14.4236C13.0161 14.0749 13.0804 13.7306 13.2113 13.4067C13.3376 13.0827 13.5282 12.788 13.7739 12.5405C14.0105 12.3042 14.2906 12.113 14.6007 11.9803C14.9176 11.8453 15.2597 11.7688 15.6042 11.7575C15.9624 11.7418 16.3184 11.8025 16.6514 11.9308C18.0155 12.428 18.7113 13.9151 18.2061 15.2515L18.2084 15.2493Z" fill="white"/>
</svg>
