<svg width="89" height="24" viewBox="0 0 89 24" fill="none" xmlns="http://www.w3.org/2000/svg">
<path d="M7.27344 4.47656C6.39844 4.47656 5.65625 4.78125 5.04688 5.39062C4.4375 6 4.13281 6.73438 4.13281 7.59375C4.13281 8.46875 4.4375 9.21094 5.04688 9.82031C5.67188 10.4297 6.41406 10.7344 7.27344 10.7344H8.09375V10.7578C9.78125 10.9297 11.1953 11.6484 12.3359 12.9141C13.4922 14.1641 14.0703 15.6484 14.0703 17.3672C14.0703 19.1953 13.4141 20.7578 12.1016 22.0547C10.8047 23.3516 9.24219 24 7.41406 24H0.640625V20.4844H7.41406C8.28906 20.4844 9.03125 20.1797 9.64062 19.5703C10.25 18.9609 10.5547 18.2266 10.5547 17.3672C10.5547 16.5078 10.2422 15.7734 9.61719 15.1641C9.00781 14.5391 8.27344 14.2266 7.41406 14.2266H6.61719V14.2031C4.92969 14.0312 3.50781 13.3203 2.35156 12.0703C1.21094 10.8047 0.640625 9.3125 0.640625 7.59375C0.640625 5.76562 1.28906 4.20312 2.58594 2.90625C3.88281 1.60938 5.44531 0.960938 7.27344 0.960938H14.0469L14.0703 4.47656H7.27344ZM17.3281 24V0.960938H20.8203V23.9766L17.3281 24ZM42.6406 0.960938H42.875L47.6797 23.9766H44.0938L40.9766 9L37.8359 23.9766H34.0156L30.875 9L27.7578 23.9766H24.1719L28.9766 0.960938H32.7969L34.3672 8.55469C34.4766 9.08594 34.7578 9.46094 35.2109 9.67969C35.6797 9.88281 36.1406 9.88281 36.5938 9.67969C37.0625 9.46094 37.3516 9.08594 37.4609 8.55469L39.0312 0.960938H42.6406Z" fill="white"/>
<path d="M54.3594 2.50781C56.125 1.47656 58.0547 0.960938 60.1484 0.960938C62.2422 0.960938 64.1719 1.47656 65.9375 2.50781C67.7031 3.53906 69.1016 4.9375 70.1328 6.70312C71.1641 8.46875 71.6797 10.3984 71.6797 12.4922C71.6797 15.6641 70.5547 18.375 68.3047 20.625C66.0547 22.875 63.3438 24 60.1719 24H60.1484C56.9766 24 54.2656 22.8828 52.0156 20.6484C49.7812 18.3984 48.6562 15.6875 48.6406 12.5156C48.6406 10.4219 49.1484 8.49219 50.1641 6.72656C51.1953 4.94531 52.5938 3.53906 54.3594 2.50781ZM60.1484 20.4844C62.3672 20.4844 64.2578 19.7031 65.8203 18.1406C67.3828 16.5781 68.1641 14.6875 68.1641 12.4688C68.1641 11.625 68.0312 11.0625 67.7656 10.7812C67.5156 10.4844 67.125 10.4141 66.5938 10.5703C66.0625 10.7109 65.5 10.9219 64.9062 11.2031C64.3125 11.4844 63.5625 11.7656 62.6562 12.0469C61.7656 12.3281 60.9297 12.4688 60.1484 12.4688H60.125C59.3438 12.4688 58.5 12.3281 57.5938 12.0469C56.7031 11.7656 55.9609 11.4844 55.3672 11.2031C54.7734 10.9219 54.2109 10.7109 53.6797 10.5703C53.1484 10.4141 52.75 10.4844 52.4844 10.7812C52.2344 11.0625 52.1094 11.625 52.1094 12.4688C52.1094 14.6875 52.8906 16.5781 54.4531 18.1406C56.0156 19.7031 57.9062 20.4844 60.125 20.4844H60.1484ZM84.9453 15.3516V0.960938H88.4609V23.9766L84.9453 24L78.5234 9.60938V23.9766L75.0312 24V0.960938H78.5234L84.9453 15.3516Z" fill="#FF3D00"/>
</svg>
